<svg width="80" height="80" viewBox="0 0 80 80" fill="none" xmlns="http://www.w3.org/2000/svg">
<path d="M40.4949 35.8621C40.4365 35.7874 40.3618 35.7269 40.2765 35.6854C40.1912 35.6438 40.0976 35.6223 40.0028 35.6223C39.9079 35.6223 39.8143 35.6438 39.729 35.6854C39.6437 35.7269 39.569 35.7874 39.5106 35.8621L30.7606 46.9324C30.6885 47.0245 30.6437 47.1351 30.6314 47.2514C30.6192 47.3678 30.6399 47.4852 30.6912 47.5904C30.7426 47.6955 30.8225 47.7841 30.9218 47.8459C31.0211 47.9078 31.1358 47.9405 31.2528 47.9402H37.0262V66.8778C37.0262 67.2215 37.3074 67.5028 37.6512 67.5028H42.3387C42.6824 67.5028 42.9637 67.2215 42.9637 66.8778V47.948H48.7527C49.2762 47.948 49.5652 47.3465 49.2449 46.9402L40.4949 35.8621Z" fill="#BFBFBF"/>
<path d="M63.3906 28.6484C59.8125 19.2109 50.6953 12.5 40.0156 12.5C29.3359 12.5 20.2188 19.2031 16.6406 28.6406C9.94531 30.3984 5 36.5 5 43.75C5 52.3828 11.9922 59.375 20.6172 59.375H23.75C24.0938 59.375 24.375 59.0937 24.375 58.75V54.0625C24.375 53.7187 24.0938 53.4375 23.75 53.4375H20.6172C17.9844 53.4375 15.5078 52.3906 13.6641 50.4922C11.8281 48.6016 10.8516 46.0547 10.9375 43.4141C11.0078 41.3516 11.7109 39.4141 12.9844 37.7812C14.2891 36.1172 16.1172 34.9062 18.1484 34.3672L21.1094 33.5937L22.1953 30.7344C22.8672 28.9531 23.8047 27.2891 24.9844 25.7812C26.149 24.2868 27.5286 22.973 29.0781 21.8828C32.2891 19.625 36.0703 18.4297 40.0156 18.4297C43.9609 18.4297 47.7422 19.625 50.9531 21.8828C52.5078 22.9766 53.8828 24.2891 55.0469 25.7812C56.2266 27.2891 57.1641 28.9609 57.8359 30.7344L58.9141 33.5859L61.8672 34.3672C66.1016 35.5078 69.0625 39.3594 69.0625 43.75C69.0625 46.3359 68.0547 48.7734 66.2266 50.6016C65.33 51.5033 64.2635 52.2183 63.0888 52.7051C61.914 53.1919 60.6544 53.4408 59.3828 53.4375H56.25C55.9062 53.4375 55.625 53.7187 55.625 54.0625V58.75C55.625 59.0937 55.9062 59.375 56.25 59.375H59.3828C68.0078 59.375 75 52.3828 75 43.75C75 36.5078 70.0703 30.4141 63.3906 28.6484Z" fill="#BFBFBF"/>
<circle cx="59.0001" cy="60.9998" r="13.3333" fill="white"/>
<path d="M59 47C51.2688 47 45 53.2688 45 61C45 68.7313 51.2688 75 59 75C66.7313 75 73 68.7313 73 61C73 53.2688 66.7313 47 59 47ZM64.1688 66.3188L62.1063 66.3094L59 62.6063L55.8969 66.3062L53.8313 66.3156C53.6938 66.3156 53.5813 66.2062 53.5813 66.0656C53.5813 66.0062 53.6031 65.95 53.6406 65.9031L57.7063 61.0594L53.6406 56.2188C53.6029 56.1729 53.5819 56.1156 53.5813 56.0562C53.5813 55.9187 53.6938 55.8062 53.8313 55.8062L55.8969 55.8156L59 59.5188L62.1031 55.8188L64.1656 55.8094C64.3031 55.8094 64.4156 55.9187 64.4156 56.0594C64.4156 56.1187 64.3938 56.175 64.3563 56.2219L60.2969 61.0625L64.3594 65.9062C64.3969 65.9531 64.4188 66.0094 64.4188 66.0688C64.4188 66.2063 64.3063 66.3188 64.1688 66.3188Z" fill="#E84848"/>
</svg>
